<svg xmlns="http://www.w3.org/2000/svg" width="60.716" height="69.625" viewBox="0 0 60.716 69.625">
  <g id="bitcoin-logo" transform="translate(-56.535 5.75)">
    <path id="Path_4107" data-name="Path 4107" d="M106.239,30.493a10.489,10.489,0,0,0-6.113-3.6q5.205-2.655,4.576-9.013a8.907,8.907,0,0,0-1.275-4,8,8,0,0,0-2.882-2.724A15.865,15.865,0,0,0,96.6,9.588a31.143,31.143,0,0,0-4.89-.786V0H86.327V8.558q-1.4,0-4.261.07V0h-5.38V8.8q-1.153.035-3.388.035L65.893,8.8v5.729H69.77a2.775,2.775,0,0,1,3.109,2.375V26.932a3.55,3.55,0,0,1,.559.035h-.559V41.009a1.866,1.866,0,0,1-2.026,1.782H66.976l-1.083,6.393H72.88q.664,0,1.921.016t1.886.018v8.907h5.38v-8.8q1.467.036,4.261.035v8.767h5.379V49.217a41.819,41.819,0,0,0,5.082-.524,20.683,20.683,0,0,0,4.244-1.206,11.453,11.453,0,0,0,3.388-2.044,9.643,9.643,0,0,0,2.254-3.109,13.216,13.216,0,0,0,1.134-4.367Q108.265,33.114,106.239,30.493ZM82.171,14.915q.245,0,1.38-.018t1.886-.035q.751-.017,2.026.087a19.274,19.274,0,0,1,2.148.279,11.966,11.966,0,0,1,1.921.576,5.206,5.206,0,0,1,1.676.978,4.851,4.851,0,0,1,1.065,1.467,4.58,4.58,0,0,1,.437,2.043,4.859,4.859,0,0,1-.314,1.782,3.357,3.357,0,0,1-.943,1.345,9.554,9.554,0,0,1-1.293.943,5.919,5.919,0,0,1-1.694.646q-1.03.245-1.8.384a14.725,14.725,0,0,1-1.921.192q-1.153.052-1.747.07t-1.625,0q-1.031-.017-1.205-.018V14.915h0ZM96.86,38.7A4.967,4.967,0,0,1,96,40.1a4.851,4.851,0,0,1-1.38,1.047,11.834,11.834,0,0,1-1.659.734,13.354,13.354,0,0,1-1.938.489q-1.137.21-1.992.3t-2.043.14q-1.187.051-1.851.052t-1.677-.018q-1.014-.016-1.293-.017V31.018q.279,0,1.659-.035t2.253-.034q.873,0,2.411.1a20.6,20.6,0,0,1,2.585.313,17,17,0,0,1,2.288.646,6.634,6.634,0,0,1,2.009,1.065,5.242,5.242,0,0,1,1.292,1.607A4.99,4.99,0,0,1,96.86,38.7Z" transform="translate(-4.56 34.667) rotate(-22)" fill="#fff"/>
  </g>
</svg>
