<svg id="information" xmlns="http://www.w3.org/2000/svg" width="21.701" height="21.701" viewBox="0 0 21.701 21.701">
  <g id="Group_423" data-name="Group 423">
    <g id="Group_422" data-name="Group 422">
      <circle id="Ellipse_114" data-name="Ellipse 114" cx="1.06" cy="1.06" r="1.06" transform="translate(9.791 14.983)" fill="#fff"/>
      <path id="Path_4114" data-name="Path 4114" d="M10.85,0A10.85,10.85,0,1,0,21.7,10.85,10.844,10.844,0,0,0,10.85,0Zm0,20.005a9.155,9.155,0,1,1,9.155-9.155A9.15,9.15,0,0,1,10.85,20.005Z" fill="#fff"/>
      <path id="Path_4115" data-name="Path 4115" d="M179.391,128.5A3.4,3.4,0,0,0,176,131.891a.848.848,0,1,0,1.7,0,1.7,1.7,0,1,1,1.7,1.7.848.848,0,0,0-.848.848v2.119a.848.848,0,1,0,1.7,0v-1.379a3.391,3.391,0,0,0-.848-6.674Z" transform="translate(-168.54 -123.054)" fill="#fff"/>
    </g>
  </g>
</svg>
