<svg xmlns="http://www.w3.org/2000/svg" width="26.978" height="23.238" viewBox="0 0 26.978 23.238">
  <path id="Path_4113" data-name="Path 4113" d="M0,45.607A1.307,1.307,0,0,0,.938,46.79l9.882,2.988.363,6.812a.675.675,0,0,0,.457.594.619.619,0,0,0,.22.039A.669.669,0,0,0,12.366,57l3.494-3.868,4.952,3.428a1.3,1.3,0,0,0,.748.237,1.328,1.328,0,0,0,1.293-1.056l4.11-20.948a.673.673,0,0,0-.913-.754L.795,44.314A1.328,1.328,0,0,0,0,45.607ZM12.438,54.9l-.226-4.3,2.531,1.75Zm9.1.523-9.013-6.24L25.165,36.957Zm2.24-19.006-12.5,12.089L1.411,45.524Z" transform="translate(0 -33.984)" fill="#fff"/>
</svg>
